<?xml version="1.0" standalone="no"?>
<!DOCTYPE svg PUBLIC "-//W3C//DTD SVG 20010904//EN"
 "http://www.w3.org/TR/2001/REC-SVG-20010904/DTD/svg10.dtd">
<svg version="1.0" xmlns="http://www.w3.org/2000/svg"
 width="942.000000pt" height="942.000000pt" viewBox="0 0 942.000000 942.000000"
 preserveAspectRatio="xMidYMid meet">
<metadata>
Created by potrace 1.14, written by Peter Selinger 2001-2017
</metadata>
<g transform="translate(0.000000,942.000000) scale(0.100000,-0.100000)"
fill="#000000" stroke="none">
<path d="M7440 9331 c-41 -19 -64 -60 -55 -100 11 -52 35 -64 141 -68 92 -3
117 -9 202 -51 80 -38 181 -168 217 -277 9 -27 22 -58 29 -67 20 -26 62 -39
92 -28 76 29 80 93 11 234 -101 209 -279 343 -477 361 -28 2 -54 6 -58 9 -5 3
-14 1 -22 -4 -8 -5 -21 -5 -29 0 -10 5 -29 2 -51 -9z"/>
<path d="M7248 8964 c-92 -16 -188 -51 -288 -106 -72 -39 -188 -117 -221 -148
-8 -8 -38 -34 -65 -56 -67 -57 -238 -232 -298 -305 -11 -13 -31 -38 -45 -55
-53 -63 -96 -118 -111 -140 -31 -46 -84 -119 -89 -124 -13 -11 -142 -211 -188
-290 -69 -121 -139 -267 -188 -396 -37 -95 -67 -187 -67 -204 0 -3 -4 -12 -9
-21 -4 -9 -10 -28 -13 -43 -3 -15 -10 -42 -15 -59 -6 -18 -13 -45 -16 -62 -6
-38 -22 -129 -31 -175 -27 -150 -38 -519 -20 -680 4 -36 9 -81 11 -100 8 -74
17 -128 35 -220 11 -52 21 -106 24 -120 9 -45 14 -64 32 -125 9 -33 18 -67 20
-75 1 -8 11 -42 23 -75 12 -33 21 -61 20 -63 -1 -3 12 -39 31 -87 4 -11 13
-36 20 -55 7 -19 16 -44 21 -55 5 -11 29 -69 54 -129 25 -59 53 -119 62 -132
8 -13 12 -24 9 -24 -3 0 5 -18 19 -40 14 -22 23 -40 20 -40 -2 0 9 -23 25 -50
17 -28 30 -53 30 -55 0 -6 129 -224 159 -269 15 -22 30 -49 34 -58 4 -10 11
-18 17 -18 5 0 10 -6 10 -13 0 -7 9 -23 20 -35 11 -12 20 -23 20 -26 0 -3 22
-34 50 -70 l49 -66 53 68 c29 38 61 79 71 93 90 125 111 154 128 182 10 18 22
40 25 50 4 9 9 17 13 17 4 0 15 17 26 38 10 20 27 48 36 62 9 14 38 68 64 120
27 52 53 98 59 102 6 4 8 8 4 8 -4 0 13 42 36 93 60 129 165 405 181 476 2 9
13 48 25 86 12 39 23 81 26 95 2 14 7 32 11 40 3 8 8 24 10 35 1 11 10 52 19
90 9 39 18 79 20 90 1 11 5 31 8 45 6 26 13 69 30 188 16 110 19 155 19 292 1
141 -8 339 -18 415 -2 17 -6 55 -9 85 -3 30 -8 73 -12 95 -3 22 -7 51 -9 65
-5 33 -14 79 -20 110 -3 14 -7 39 -10 55 -2 17 -13 77 -25 135 -21 103 -26
128 -34 173 -8 36 -35 170 -41 197 -3 14 -7 42 -10 64 -3 21 -7 41 -9 45 -15
24 -25 245 -14 308 20 110 138 205 262 208 58 2 136 -19 136 -37 0 -4 7 -8 15
-8 9 0 22 -6 30 -12 41 -35 111 -107 134 -138 14 -19 34 -44 44 -55 10 -11 20
-30 23 -42 4 -13 9 -23 13 -23 3 0 28 -43 55 -95 27 -53 53 -92 57 -88 9 10
45 132 59 203 34 174 28 354 -19 519 -26 92 -103 228 -155 275 -146 130 -278
170 -458 140z"/>
<path d="M7439 6249 c0 -19 -2 -41 -3 -49 -3 -13 -10 -72 -21 -165 -4 -31 -29
-169 -39 -217 -3 -16 -8 -38 -10 -50 -2 -13 -10 -45 -16 -73 -6 -27 -13 -58
-15 -68 -2 -9 -6 -21 -9 -25 -3 -5 -7 -19 -9 -33 -12 -64 -102 -355 -132 -424
-7 -16 -21 -52 -30 -80 -16 -45 -40 -100 -80 -190 -90 -200 -299 -572 -327
-583 -4 -2 -8 -8 -8 -13 0 -9 -103 -153 -157 -220 -85 -105 -165 -193 -277
-304 -134 -132 -152 -149 -241 -220 -27 -22 -55 -44 -61 -50 -6 -5 -23 -19
-39 -30 -15 -11 -46 -33 -69 -50 -145 -106 -308 -202 -500 -295 -146 -71 -372
-165 -414 -174 -9 -1 -30 -8 -45 -14 -15 -7 -40 -15 -55 -18 -15 -4 -33 -11
-39 -17 -7 -5 -13 -7 -13 -4 0 4 -18 0 -40 -8 -22 -8 -42 -14 -45 -14 -8 -1
-59 -12 -75 -17 -8 -3 -17 -6 -20 -6 -3 -1 -21 -5 -40 -10 -40 -10 -113 -27
-150 -34 -192 -37 -263 -49 -350 -59 -19 -2 -53 -7 -75 -9 -52 -7 -146 -16
-215 -21 -30 -2 -55 -4 -55 -5 0 -8 -553 -11 -690 -5 -91 5 -238 14 -295 19
-141 13 -198 18 -220 22 -14 3 -50 7 -80 9 -30 3 -66 7 -80 10 -14 3 -38 8
-55 10 -67 8 -122 16 -150 21 -16 3 -41 7 -55 9 -35 4 -89 14 -205 36 -55 10
-115 21 -132 24 -18 3 -61 12 -95 20 -35 8 -79 18 -98 22 -63 14 -172 9 -211
-9 -121 -58 -182 -206 -134 -322 14 -34 61 -113 75 -126 3 -3 18 -20 33 -38
15 -19 27 -31 27 -28 0 3 12 -7 27 -22 16 -15 51 -44 80 -65 58 -41 252 -137
276 -137 9 0 19 -4 22 -10 3 -5 17 -10 30 -10 13 0 27 -5 30 -11 4 -5 12 -8
18 -6 7 2 26 -2 43 -9 18 -7 45 -16 60 -19 16 -2 40 -7 54 -10 106 -21 129
-25 155 -30 17 -3 50 -7 75 -11 25 -3 55 -7 66 -9 168 -27 724 -27 944 -1 19
3 60 8 90 11 72 9 118 15 155 21 17 2 46 7 65 9 38 5 81 12 120 20 14 3 39 7
55 10 42 6 84 14 125 25 19 5 52 11 74 14 21 4 41 8 45 11 7 4 23 7 91 21 14
3 33 7 42 10 9 3 25 7 35 9 10 2 36 9 58 15 22 6 49 13 60 15 75 18 426 131
525 170 19 7 76 29 125 48 174 68 585 256 605 277 3 3 57 34 120 69 63 35 117
68 118 73 2 4 8 8 13 8 6 0 37 18 70 40 33 22 65 40 70 40 5 0 9 5 9 10 0 6 4
10 10 10 5 0 18 7 27 15 10 8 68 50 128 93 165 119 294 230 455 392 157 157
197 202 290 325 33 44 65 86 72 94 6 7 35 50 64 95 29 44 57 86 61 91 4 6 23
40 42 75 19 36 37 67 40 70 10 8 121 244 121 256 0 2 9 23 20 47 45 97 127
374 153 517 3 14 8 41 12 60 3 19 8 44 10 55 2 11 4 20 5 20 1 0 3 14 5 30 1
17 6 57 9 90 29 270 25 652 -9 860 -2 17 -7 53 -11 80 -7 60 -14 71 -15 24z"/>
<path d="M7582 4883 c2 -12 -45 -183 -68 -245 -8 -21 -11 -38 -8 -38 4 0 2 -6
-3 -12 -6 -7 -16 -31 -23 -53 -7 -22 -18 -46 -24 -54 -6 -8 -9 -15 -7 -15 2
-1 -4 -18 -13 -40 -9 -21 -16 -40 -16 -42 0 -3 -28 -62 -61 -132 -57 -118
-187 -344 -231 -402 -10 -14 -53 -72 -95 -130 -42 -58 -80 -107 -84 -110 -3
-3 -30 -34 -60 -70 -82 -100 -428 -440 -446 -440 -3 0 -10 -6 -17 -12 -25 -26
-191 -153 -256 -198 -28 -19 -57 -39 -63 -45 -26 -22 -127 -85 -137 -85 -5 0
-10 -3 -10 -8 0 -9 -57 -44 -285 -172 -128 -72 -357 -184 -500 -244 -16 -7
-52 -23 -80 -35 -76 -32 -286 -111 -325 -122 -19 -6 -44 -14 -55 -19 -24 -11
-146 -50 -160 -51 -5 -1 -26 -7 -45 -15 -55 -20 -377 -106 -490 -129 -8 -2
-15 -4 -15 -5 0 -1 -9 -3 -20 -4 -11 -2 -56 -10 -100 -19 -44 -9 -96 -19 -115
-22 -19 -3 -48 -8 -65 -11 -16 -2 -55 -9 -85 -14 -131 -22 -283 -39 -495 -55
-44 -3 -111 -8 -150 -11 -136 -10 -161 -12 -275 -19 -119 -6 -316 -12 -525
-15 -75 -2 -129 -7 -145 -15 -103 -54 -137 -176 -73 -267 42 -62 111 -130 188
-189 69 -51 255 -149 286 -149 9 0 19 -3 23 -7 3 -4 12 -8 19 -9 7 -1 48 -11
92 -22 72 -18 116 -26 225 -37 57 -7 310 -7 375 -1 136 13 235 25 269 32 12 3
32 6 46 9 47 7 225 44 240 49 8 3 29 8 45 11 40 8 60 13 60 16 0 1 9 3 20 4
29 4 307 89 388 119 37 13 71 25 75 26 4 2 17 6 30 11 13 5 27 9 32 9 4 0 21
7 36 15 16 8 36 15 45 15 8 0 19 4 25 9 5 4 32 16 59 26 28 10 55 22 61 27 7
5 20 10 30 12 48 10 556 260 562 277 2 5 8 9 13 9 14 0 231 128 314 185 36 25
70 45 75 45 6 0 10 5 10 10 0 6 6 10 14 10 8 0 16 3 18 8 2 4 32 27 68 52 36
24 67 48 68 52 2 4 10 8 17 8 7 0 15 4 17 8 2 4 41 37 88 72 184 141 344 282
535 474 161 161 191 194 290 311 22 26 47 54 55 64 76 84 360 487 360 510 0 5
3 11 8 13 28 12 270 490 264 521 -1 4 2 7 8 7 6 0 10 6 10 12 0 7 11 42 24 78
31 81 39 104 41 110 8 26 28 97 29 105 1 6 4 15 8 20 3 6 13 44 22 85 23 106
25 117 36 195 20 149 21 165 10 165 -5 0 -9 -3 -8 -7z"/>
<path d="M7644 4233 c-4 -10 -8 -20 -9 -23 -1 -3 -5 -14 -9 -25 -4 -11 -17
-45 -28 -75 -43 -117 -156 -362 -170 -368 -5 -2 -8 -12 -8 -23 0 -10 -4 -19
-10 -19 -5 0 -10 -5 -10 -10 0 -9 -26 -55 -135 -238 -25 -42 -88 -137 -127
-191 -24 -33 -50 -69 -58 -82 -18 -27 -202 -260 -239 -302 -93 -106 -144 -160
-296 -312 -93 -93 -201 -197 -239 -230 -38 -33 -74 -65 -80 -71 -30 -28 -310
-246 -371 -289 -38 -27 -72 -52 -75 -55 -8 -8 -168 -112 -305 -198 -22 -14
-51 -32 -65 -41 -14 -9 -38 -23 -55 -31 -16 -8 -32 -17 -35 -20 -15 -15 -500
-263 -500 -256 0 2 -27 -9 -60 -25 -33 -16 -62 -29 -64 -29 -2 0 -21 -8 -42
-17 -22 -9 -41 -17 -44 -18 -3 -1 -18 -7 -35 -14 -16 -6 -53 -21 -81 -32 -29
-11 -58 -22 -65 -23 -8 -1 -32 -10 -53 -20 -22 -9 -51 -19 -65 -23 -14 -3 -30
-9 -36 -14 -5 -4 -12 -7 -15 -7 -3 1 -52 -14 -110 -31 -58 -18 -112 -35 -120
-37 -8 -2 -55 -15 -105 -29 -49 -14 -99 -27 -110 -29 -11 -2 -38 -8 -60 -14
-63 -17 -247 -54 -285 -58 -19 -2 -46 -6 -60 -9 -14 -3 -47 -8 -73 -10 -26 -3
-65 -7 -85 -10 -20 -3 -95 -8 -166 -11 -71 -2 -133 -7 -138 -10 -33 -21 -52
-120 -32 -171 28 -71 146 -150 315 -212 97 -35 171 -52 299 -67 61 -7 283 -7
345 1 28 3 68 7 90 10 40 3 87 11 135 20 14 3 36 7 50 10 14 3 36 7 50 10 14
3 34 7 45 10 53 11 221 57 235 65 8 4 17 8 20 7 7 -1 170 52 195 63 11 5 56
23 100 39 420 154 898 454 1284 806 125 113 409 405 466 478 6 7 26 30 45 52
19 22 49 58 65 79 17 21 35 44 40 50 6 6 27 34 47 61 21 28 48 63 60 79 37 46
104 143 175 251 36 55 73 111 82 125 76 110 240 416 329 610 32 70 122 299
126 320 1 3 7 19 13 35 13 32 72 235 79 269 2 12 8 41 14 66 5 25 12 63 14 85
3 22 5 40 6 40 0 0 3 25 5 55 3 30 7 65 10 78 6 26 0 29 -11 5z"/>
<path d="M7606 3401 c-5 -8 -46 -103 -94 -216 -36 -86 -279 -563 -293 -575 -3
-3 -19 -30 -36 -60 -45 -82 -150 -251 -173 -277 -5 -7 -10 -14 -10 -17 0 -13
-219 -319 -232 -324 -4 -2 -8 -10 -8 -17 0 -7 -3 -15 -7 -17 -5 -1 -30 -30
-56 -63 -86 -106 -102 -126 -118 -146 -137 -163 -386 -411 -537 -534 -13 -11
-32 -27 -41 -35 -9 -9 -35 -29 -56 -45 -22 -17 -42 -32 -45 -36 -3 -3 -36 -27
-75 -54 -38 -27 -91 -63 -117 -82 -26 -18 -52 -33 -57 -33 -5 0 -16 -6 -23
-13 -7 -7 -33 -24 -58 -38 -25 -13 -47 -26 -50 -29 -3 -3 -27 -16 -55 -30 -27
-14 -58 -31 -67 -39 -10 -8 -18 -11 -18 -8 0 4 -25 -7 -55 -23 -31 -17 -62
-30 -70 -30 -8 0 -15 -3 -15 -8 0 -4 -15 -12 -32 -19 -110 -38 -262 -103 -282
-119 -62 -50 -78 -157 -35 -234 19 -34 38 -51 87 -77 35 -19 78 -36 95 -40 64
-12 322 -6 322 8 0 1 9 3 20 4 22 2 197 59 230 75 177 81 386 194 405 219 3 4
16 14 30 23 30 19 132 99 210 165 65 55 300 291 348 348 19 22 46 55 60 74 15
19 35 43 45 53 9 10 17 22 17 27 0 5 3 11 8 13 4 2 25 28 47 58 22 30 43 57
47 58 5 2 8 10 8 17 0 8 7 20 15 28 20 20 135 204 135 216 0 5 3 11 8 13 9 4
24 32 113 208 58 116 88 180 94 200 0 3 10 25 21 50 12 25 31 72 43 105 13 33
28 71 34 85 6 14 12 30 12 35 1 6 7 21 15 35 7 14 12 26 11 28 -1 1 14 53 34
116 33 107 98 350 109 406 2 14 10 48 16 75 11 49 25 120 35 180 9 60 15 90
19 113 3 13 8 53 11 88 4 36 10 78 15 94 8 29 7 39 -4 21z"/>
</g>
</svg>
