<?xml version="1.0" encoding="UTF-8" standalone="no"?>
<!-- Created with Inkscape (http://www.inkscape.org/) -->

<svg
   version="1.1"
   id="svg824"
   xml:space="preserve"
   width="1178.2872"
   height="466.13177"
   viewBox="0 0 1178.2872 466.13177"
   sodipodi:docname="logo_yellow-x.svg"
   inkscape:version="1.1.2 (b8e25be8, 2022-02-05)"
   xmlns:inkscape="http://www.inkscape.org/namespaces/inkscape"
   xmlns:sodipodi="http://sodipodi.sourceforge.net/DTD/sodipodi-0.dtd"
   xmlns="http://www.w3.org/2000/svg"
   xmlns:svg="http://www.w3.org/2000/svg"><defs
     id="defs828"><linearGradient
       x1="0"
       y1="0"
       x2="1"
       y2="0"
       gradientUnits="userSpaceOnUse"
       gradientTransform="matrix(162.35158,-200.75734,-200.75734,-162.35158,660.89325,699.56885)"
       spreadMethod="pad"
       id="linearGradient5809"><stop
         style="stop-opacity:1;stop-color:#ff645e"
         offset="0"
         id="stop5805" /><stop
         style="stop-opacity:1;stop-color:#000000"
         offset="1"
         id="stop5807" /></linearGradient><clipPath
       clipPathUnits="userSpaceOnUse"
       id="clipPath838"><path
         d="M 0,1080 H 1920 V 0 H 0 Z"
         id="path836" /></clipPath><clipPath
       clipPathUnits="userSpaceOnUse"
       id="clipPath16"><path
         d="M 0,1080 H 1920 V 0 H 0 Z"
         id="path14" /></clipPath><linearGradient
       x1="0"
       y1="0"
       x2="1"
       y2="0"
       gradientUnits="userSpaceOnUse"
       gradientTransform="matrix(162.35158,-200.75734,-200.75734,-162.35158,660.89325,699.56885)"
       spreadMethod="pad"
       id="linearGradient80"><stop
         style="stop-opacity:1;stop-color:#ff753f"
         offset="0"
         id="stop76" /><stop
         style="stop-opacity:1;stop-color:#ff2ac4"
         offset="1"
         id="stop78" /></linearGradient><linearGradient
       x1="0"
       y1="0"
       x2="1"
       y2="0"
       gradientUnits="userSpaceOnUse"
       gradientTransform="matrix(162.35158,-200.75734,-200.75734,-162.35158,724.82227,751.26794)"
       spreadMethod="pad"
       id="linearGradient100"><stop
         style="stop-opacity:1;stop-color:#ff753f"
         offset="0"
         id="stop96" /><stop
         style="stop-opacity:1;stop-color:#ff2ac4"
         offset="1"
         id="stop98" /></linearGradient><linearGradient
       x1="0"
       y1="0"
       x2="1"
       y2="0"
       gradientUnits="userSpaceOnUse"
       gradientTransform="matrix(162.35158,-200.75734,-200.75734,-162.35158,544.99646,605.84363)"
       spreadMethod="pad"
       id="linearGradient120"><stop
         style="stop-opacity:1;stop-color:#ff753f"
         offset="0"
         id="stop116" /><stop
         style="stop-opacity:1;stop-color:#ff2ac4"
         offset="1"
         id="stop118" /></linearGradient><linearGradient
       x1="0"
       y1="0"
       x2="1"
       y2="0"
       gradientUnits="userSpaceOnUse"
       gradientTransform="matrix(162.35158,-200.75734,-200.75734,-162.35158,547.9895,608.26404)"
       spreadMethod="pad"
       id="linearGradient140"><stop
         style="stop-opacity:1;stop-color:#ff753f"
         offset="0"
         id="stop136" /><stop
         style="stop-opacity:1;stop-color:#ff2ac4"
         offset="1"
         id="stop138" /></linearGradient><linearGradient
       x1="0"
       y1="0"
       x2="1"
       y2="0"
       gradientUnits="userSpaceOnUse"
       gradientTransform="matrix(162.35158,-200.75734,-200.75734,-162.35158,549.94061,609.84192)"
       spreadMethod="pad"
       id="linearGradient160"><stop
         style="stop-opacity:1;stop-color:#ff753f"
         offset="0"
         id="stop156" /><stop
         style="stop-opacity:1;stop-color:#ff2ac4"
         offset="1"
         id="stop158" /></linearGradient><linearGradient
       x1="0"
       y1="0"
       x2="1"
       y2="0"
       gradientUnits="userSpaceOnUse"
       gradientTransform="matrix(162.35158,-200.75734,-200.75734,-162.35158,562.17084,619.73242)"
       spreadMethod="pad"
       id="linearGradient180"><stop
         style="stop-opacity:1;stop-color:#ff753f"
         offset="0"
         id="stop176" /><stop
         style="stop-opacity:1;stop-color:#ff2ac4"
         offset="1"
         id="stop178" /></linearGradient></defs><sodipodi:namedview
     id="namedview826"
     pagecolor="#ffffff"
     bordercolor="#666666"
     borderopacity="1.0"
     inkscape:pageshadow="2"
     inkscape:pageopacity="0.0"
     inkscape:pagecheckerboard="0"
     showgrid="false"
     inkscape:zoom="0.5"
     inkscape:cx="861"
     inkscape:cy="230"
     inkscape:window-width="1810"
     inkscape:window-height="1348"
     inkscape:window-x="2031"
     inkscape:window-y="25"
     inkscape:window-maximized="0"
     inkscape:current-layer="g830" /><g
     id="g830"
     inkscape:groupmode="layer"
     inkscape:label="andypf"
     transform="matrix(1.3333333,0,0,-1.3333333,-690.85586,953.06632)"><g
       id="g832"
       style="fill:#a5a5a5;fill-opacity:1"><g
         id="g834"
         clip-path="url(#clipPath838)"
         style="fill:#a5a5a5;fill-opacity:1"><g
           id="g840"
           transform="translate(898.4053,418.7393)"
           style="fill:#a5a5a5;fill-opacity:1"><path
             id="path842"
             style="fill:#a5a5a5;fill-opacity:1;fill-rule:nonzero;stroke:none;stroke-width:1.33333"
             transform="matrix(0.75000002,0,0,-0.75000002,-380.26339,296.06046)"
             d="m 478.68945,348.72266 c -3.40266,0 -6.53639,0.55215 -9.40039,1.66015 -2.864,1.10534 -5.33105,2.58116 -7.40039,4.42383 -2.072,1.844 -3.68827,3.96824 -4.84961,6.37891 -1.16266,2.412 -1.74414,4.89331 -1.74414,7.44531 0,5.50267 1.98441,9.61327 5.95508,12.33594 3.96933,2.72133 9.78345,4.08398 17.43945,4.08398 2.268,0 4.53731,0.056 6.80664,0.16797 2.268,0.112 4.2804,0.46659 6.03907,1.05859 1.75733,0.59334 3.19154,1.54056 4.29687,2.83789 1.10533,1.30134 1.6582,3.16442 1.6582,5.59375 0,1.97734 -0.53985,3.68562 -1.61718,5.12696 -1.07867,1.44 -2.49462,2.62659 -4.25196,3.55859 -1.75866,0.932 -3.77301,1.62222 -6.04101,2.07422 -2.26934,0.452 -4.56529,0.67773 -6.89063,0.67773 -2.49733,0 -4.75034,-0.32384 -6.76367,-0.97851 -2.01333,-0.65067 -3.82736,-1.47346 -5.44336,-2.4668 -1.616,-0.99066 -3.02089,-2.06975 -4.21289,-3.23242 -1.19067,-1.16133 -2.20988,-2.25406 -3.06055,-3.27539 l -6.63671,6.20898 c 1.58666,2.04134 3.38901,3.87848 5.40234,5.50782 2.012,1.63066 4.15449,3.00314 6.42383,4.11914 2.268,1.11733 4.60558,1.97288 7.01758,2.57422 2.40933,0.60133 4.83343,0.90039 7.27343,0.90039 4.02667,0 7.77047,-0.48132 11.23047,-1.44532 3.45867,-0.964 6.45061,-2.34028 8.97461,-4.12695 2.52267,-1.78667 4.50841,-3.96749 5.95508,-6.54883 1.44533,-2.58 2.16797,-5.45743 2.16797,-8.63476 0,-2.948 -0.41242,-5.60041 -1.23242,-7.95508 -0.824,-2.352 -2.28548,-4.33908 -4.38282,-5.95508 -2.09866,-1.61733 -4.94749,-2.84855 -8.54882,-3.69922 -3.60134,-0.852 -8.18095,-1.27734 -13.73829,-1.27734 -2.72266,0 -4.95035,-0.19837 -6.67968,-0.59571 -1.73067,-0.39599 -3.105,-0.93523 -4.125,-1.61523 -1.02,-0.68133 -1.73096,-1.45984 -2.12696,-2.33984 -0.39733,-0.87867 -0.5957,-1.79968 -0.5957,-2.76367 0,-1.36267 0.34015,-2.68104 1.02149,-3.95704 0.68133,-1.27733 1.61597,-2.39599 2.80664,-3.36132 1.19066,-0.96267 2.57996,-1.73021 4.16796,-2.29688 1.588,-0.56667 3.28947,-0.84961 5.10547,-0.84961 2.04134,0 3.89894,0.12753 5.57227,0.38086 1.672,0.256 3.27464,0.68134 4.80664,1.27734 1.532,0.59467 3.04811,1.37585 4.55078,2.33985 1.50267,0.96533 3.10593,2.12499 4.80859,3.48633 l 5.78321,-6.80469 c -3.8,-3.74267 -7.79876,-6.35017 -11.9961,-7.82617 -4.19733,-1.47467 -8.70539,-2.21289 -13.52539,-2.21289 z" /></g><g
           id="g844"
           transform="translate(968.9082,428.4053)"
           style="fill:#a5a5a5;fill-opacity:1"><path
             d="m 0,0 c 0,2.591 -0.5,4.979 -1.5,7.165 -0.999,2.187 -2.36,4.076 -4.083,5.669 -1.722,1.592 -3.711,2.823 -5.965,3.693 -2.256,0.87 -4.658,1.306 -7.21,1.306 -2.638,0 -5.105,-0.446 -7.402,-1.338 -2.297,-0.891 -4.285,-2.153 -5.965,-3.789 -1.681,-1.635 -2.999,-3.566 -3.956,-5.796 -0.957,-2.229 -1.436,-4.681 -1.436,-7.356 0,-2.548 0.511,-4.915 1.532,-7.102 1.021,-2.186 2.402,-4.065 4.147,-5.637 1.744,-1.57 3.742,-2.802 5.998,-3.694 2.254,-0.891 4.635,-1.337 7.146,-1.337 2.552,0 4.965,0.467 7.241,1.402 2.275,0.933 4.253,2.217 5.934,3.852 1.68,1.636 3.02,3.557 4.019,5.765 C -0.5,-4.989 0,-2.59 0,0 m 6.955,-0.414 c 0,-3.531 -0.693,-6.807 -2.077,-9.826 -1.384,-3.021 -3.247,-5.637 -5.59,-7.848 -2.343,-2.212 -5.068,-3.956 -8.177,-5.231 -3.109,-1.277 -6.388,-1.915 -9.838,-1.915 -3.62,0 -6.984,0.66 -10.093,1.978 -3.109,1.319 -5.813,3.126 -8.113,5.423 -2.3,2.298 -4.11,5.009 -5.43,8.136 -1.321,3.126 -1.98,6.475 -1.98,10.049 0,3.487 0.692,6.73 2.075,9.729 1.384,2.999 3.258,5.593 5.622,7.784 2.363,2.191 5.1,3.903 8.209,5.136 3.109,1.234 6.367,1.851 9.774,1.851 3.536,0 6.857,-0.649 9.966,-1.947 3.108,-1.298 5.824,-3.084 8.145,-5.358 C 1.769,15.271 3.6,12.602 4.942,9.539 6.284,6.477 6.955,3.159 6.955,-0.414"
             style="fill:#a5a5a5;fill-opacity:1;fill-rule:nonzero;stroke:none"
             id="path846" /></g><g
           id="g848"
           transform="translate(1012.7402,404.2559)"
           style="fill:#a5a5a5;fill-opacity:1"><path
             d="M 0,0 H -6.955 V 47.598 H 26.542 V 40.579 H 0 V 26.113 c 1.446,0.842 2.913,1.359 4.402,1.548 1.489,0.19 3.02,0.285 4.595,0.285 H 19.396 V 20.928 H 8.997 C 7.465,20.928 5.943,20.81 4.435,20.577 2.924,20.343 1.446,19.843 0,19.077 Z"
             style="fill:#a5a5a5;fill-opacity:1;fill-rule:nonzero;stroke:none"
             id="path850" /></g><g
           id="g852"
           transform="translate(1087.9004,444.835)"
           style="fill:#a5a5a5;fill-opacity:1"><path
             d="M 0,0 V -40.579 H -6.763 V 0 H -23.735 V 7.019 H 16.781 V 0 Z"
             style="fill:#a5a5a5;fill-opacity:1;fill-rule:nonzero;stroke:none"
             id="path854" /></g><g
           id="g856"
           transform="translate(1193.1118,451.8535)"
           style="fill:#a5a5a5;fill-opacity:1"><path
             d="m 0,0 -15.186,-47.598 h -7.528 l -9.188,28.138 -8.932,-28.138 h -7.529 L -64.505,0 h 7.145 l 12.633,-35.603 8.933,28.074 L -38.219,0 h 7.147 L -19.078,-35.603 -7.337,0 Z"
             style="fill:#a5a5a5;fill-opacity:1;fill-rule:nonzero;stroke:none"
             id="path858" /></g><g
           id="g860"
           transform="translate(1250.2793,418.2295)"
           style="fill:#a5a5a5;fill-opacity:1"><path
             d="M 0,0 -10.4,20.098 -20.928,-2.681 c 0.851,0.724 2.255,1.35 4.212,1.883 1.955,0.531 4.593,0.798 7.911,0.798 z m -16.525,34.453 h 7.656 L 14.037,-13.974 H 6.252 l -3.126,6.955 h -14.483 c -2.169,0 -4.094,-0.15 -5.774,-0.447 -1.681,-0.298 -3.117,-0.68 -4.307,-1.148 -1.191,-0.469 -2.148,-0.979 -2.871,-1.531 -0.724,-0.553 -1.213,-1.084 -1.467,-1.595 l -1.213,-2.234 h -7.529 l 20.609,42.557 z"
             style="fill:#a5a5a5;fill-opacity:1;fill-rule:nonzero;stroke:none"
             id="path862" /></g><g
           id="g864"
           transform="translate(1299.3438,429.1221)"
           style="fill:#a5a5a5;fill-opacity:1"><path
             d="m 0,0 c 1.446,0.859 2.913,1.384 4.402,1.578 1.489,0.193 3.02,0.29 4.595,0.29 h 9.06 c 2.424,0 4.38,0.568 5.87,1.706 1.488,1.138 2.233,2.972 2.233,5.5 0,1.223 -0.214,2.255 -0.639,3.098 -0.425,0.844 -1,1.528 -1.722,2.055 -0.724,0.526 -1.574,0.906 -2.552,1.138 -0.979,0.232 -2.042,0.348 -3.19,0.348 L 0,15.713 Z M 14.575,-5.15 H 9.013 C 7.479,-5.15 5.956,-5.269 4.442,-5.502 2.929,-5.736 1.449,-6.235 0,-7.001 v -17.865 h -6.955 v 47.597 h 25.051 c 2.173,0 4.175,-0.309 6.007,-0.924 1.832,-0.618 3.419,-1.522 4.761,-2.712 1.342,-1.192 2.386,-2.659 3.132,-4.403 0.745,-1.745 1.118,-3.744 1.118,-5.998 0,-3.616 -0.977,-6.571 -2.929,-8.868 -1.952,-2.297 -4.656,-3.871 -8.109,-4.722 l 3.7,-7.592 c 0.772,-1.107 1.437,-2 1.996,-2.68 0.558,-0.681 1.094,-1.223 1.61,-1.627 0.514,-0.404 1.051,-0.681 1.609,-0.829 0.558,-0.149 1.223,-0.224 1.995,-0.224 l 2.234,0.064 v -7.082 c -1.362,0 -2.735,0.042 -4.119,0.128 -1.387,0.085 -2.718,0.361 -3.997,0.829 -1.277,0.468 -2.493,1.213 -3.643,2.233 -1.15,1.021 -2.174,2.466 -3.068,4.339 z"
             style="fill:#a5a5a5;fill-opacity:1;fill-rule:nonzero;stroke:none"
             id="path866" /></g><g
           id="g868"
           transform="translate(1372.0796,411.2744)"
           style="fill:#a5a5a5;fill-opacity:1"><path
             d="M 0,0 H 29.35 V -7.019 H -6.955 V 40.579 H 26.542 V 33.561 H 0 V 19.095 c 1.446,0.842 2.913,1.358 4.402,1.548 1.489,0.189 3.02,0.285 4.595,0.285 H 19.396 V 13.909 H 8.997 C 7.465,13.909 5.943,13.792 4.435,13.56 2.924,13.326 1.446,12.828 0,12.066 Z"
             style="fill:#a5a5a5;fill-opacity:1;fill-rule:nonzero;stroke:none"
             id="path870" /></g><g
           id="g872"
           transform="translate(905.2661,632.96)"
           style="fill:#a5a5a5;fill-opacity:1"><path
             id="path874"
             style="fill:#a5a5a5;fill-opacity:1;fill-rule:nonzero;stroke:none;stroke-width:1.33333"
             transform="matrix(0.75000002,0,0,-0.75000002,-387.12419,81.839758)"
             d="m 453.53906,109.11914 v 31.44531 h 43.64063 c 17.02933,0 50.42969,-2.13114 50.42969,23.38086 0,24.80934 -32.65216,23.64453 -49.66016,23.64453 h -44.41016 v 109.65039 h 31.44532 v -78.4707 h 31.18164 c 0,0 62.60351,0.001 62.60351,-54.82422 0,-54.82533 -62.60351,-54.82617 -62.60351,-54.82617 z" /></g><path
           d="m 1006.028,609.376 h 94.121 v 23.584 h -94.121 z m 0,-35.269 V 491.87 h 23.584 v 58.852 h 58.654 v 23.385 z"
           style="fill:#a5a5a5;fill-opacity:1;fill-rule:nonzero;stroke:none"
           id="path876" /><g
           id="g878"
           transform="translate(1193.4614,636.981)"
           style="fill:#a5a5a5;fill-opacity:1"><path
             d="m 0,0 -56.232,-145.111 h 25.397 L 0,-59.462 31.033,-145.111 h 25.396 z"
             style="fill:#a5a5a5;fill-opacity:1;fill-rule:nonzero;stroke:none"
             id="path880" /></g><g
           id="g882"
           transform="translate(1378.2744,632.96)"
           style="fill:#a5a5a5;fill-opacity:1"><path
             d="m 0,0 v -95.95 c 0,-15.723 -14.717,-23.584 -29.418,-23.584 -14.915,0 -28.017,7.268 -29.237,23.584 V 0 h -23.583 v -95.95 c 0,-29.023 23.798,-47.167 52.82,-47.167 30.027,0 53.001,17.139 53.001,47.167 V 0 Z"
             style="fill:#a5a5a5;fill-opacity:1;fill-rule:nonzero;stroke:none"
             id="path884" /></g><g
           id="g886"
           transform="translate(764.4468,657.3242)"
           style="fill:#a5a5a5;fill-opacity:1" /><g
           id="g890"
           transform="translate(772.9409,692.0737)"
           style="fill:#a5a5a5;fill-opacity:1" /><g
           id="g894"
           transform="translate(751.1089,477.6465)"
           style="fill:#a5a5a5;fill-opacity:1" /><g
           id="g898"
           transform="translate(758.3901,524.4111)"
           style="fill:#a5a5a5;fill-opacity:1" /><g
           id="g902"
           transform="translate(756.3384,549.9609)"
           style="fill:#a5a5a5;fill-opacity:1" /><g
           id="g906"
           transform="translate(750.498,600.6973)"
           style="fill:#a5a5a5;fill-opacity:1" /></g></g><g
       id="g8"
       inkscape:label="andypf"
       transform="translate(519.69414,-366.90806)"
       style="fill:#e0a80d;fill-opacity:1"><g
         id="g64"
         transform="translate(-515.25001,362.25)"
         style="fill:#e0a80d;fill-opacity:1"><g
           id="g66"
           style="fill:#e0a80d;fill-opacity:1"><g
             id="g72"
             style="fill:#e0a80d;fill-opacity:1"><g
               id="g74"
               style="fill:#e0a80d;fill-opacity:1"><path
                 d="m 698.553,661.693 c -45.739,-68.013 8.539,-138.142 12.742,-143.371 v 0 c 26.014,30.978 31.309,68.012 32.367,79.363 v 0 0.066 c 1.887,39.12 -14.396,67.55 -5.394,75.724 v 0 c 14.397,13.106 26.178,-16.151 26.178,-16.151 v 0 c 8.285,21.243 0.294,43.696 -17.51,43.693 v 0 c -12.21,-0.003 -29.036,-10.566 -48.383,-39.324"
                 style="fill:#e0a80d;stroke:none;fill-opacity:1"
                 id="path82" /></g></g></g></g><g
         id="g84"
         transform="translate(-515.25001,362.25)"
         style="fill:#e0a80d;fill-opacity:1"><g
           id="g86"
           style="fill:#e0a80d;fill-opacity:1"><g
             id="g92"
             style="fill:#e0a80d;fill-opacity:1"><g
               id="g94"
               style="fill:#e0a80d;fill-opacity:1"><path
                 d="m 751.144,714.676 c -1.818,-0.18 -3.148,-1.8 -2.969,-3.619 v 0 c 0.18,-1.818 1.815,-3.163 3.619,-2.968 v 0 c 12.14,1.177 16.629,-9.151 17.978,-13.654 v 0 c 0.43,-1.434 1.746,-2.361 3.17,-2.361 v 0 c 0.314,0 0.634,0.045 0.951,0.14 v 0 c 1.751,0.525 2.746,2.371 2.22,4.12 v 0 c -3.468,11.569 -11.962,18.467 -22.497,18.466 v 0 c -0.811,0 -1.637,-0.041 -2.472,-0.124"
                 style="fill:#e0a80d;stroke:none;fill-opacity:1"
                 id="path102" /></g></g></g></g><g
         id="g104"
         transform="matrix(0.87022922,0,0,1.0933789,-411.9751,333.06264)"
         style="fill:#e0a80d;fill-opacity:1"><g
           id="g106"
           style="fill:#e0a80d;fill-opacity:1"><g
             id="g112"
             style="fill:#e0a80d;fill-opacity:1"><g
               id="g114"
               style="fill:#e0a80d;fill-opacity:1"><path
                 d="m 656.521,385.31 c -6.752,-2.748 -13.238,-4.966 -19.427,-6.653 v 0 c -0.298,-0.099 -0.596,-0.231 -0.894,-0.364 v 0 c -4.501,-1.92 -4.832,-8.241 -0.496,-10.524 v 0 c 16.184,-8.705 46.434,7.512 46.434,7.512 v 0 c 50.801,28.032 65.066,74.598 68.971,102.365 v 0 C 733.337,442.102 699.546,402.718 656.521,385.31"
                 style="fill:#e0a80d;stroke:none;fill-opacity:1"
                 id="path122" /></g></g></g></g><g
         id="g124"
         transform="translate(-515.25001,362.25)"
         style="fill:#e0a80d;fill-opacity:1"><g
           id="g126"
           style="fill:#e0a80d;fill-opacity:1"><g
             id="g132"
             style="fill:#e0a80d;fill-opacity:1"><g
               id="g134"
               style="fill:#e0a80d;fill-opacity:1"><path
                 d="m 695.209,441.705 c -0.958,-0.762 -1.952,-1.522 -2.944,-2.218 v 0 c -1.788,-1.357 -3.674,-2.68 -5.561,-3.972 v 0 c -1.357,-0.926 -2.746,-1.853 -4.17,-2.78 v 0 c -0.066,-0.033 -0.132,-0.099 -0.198,-0.131 v 0 c -14.761,-9.631 -31.243,-17.906 -49.28,-24.094 v 0 c -19.029,-6.554 -35.875,-9.863 -50.074,-9.863 v 0 h -0.86 c -2.416,-2.548 -2.581,-6.983 0.729,-9.499 v 0 c 10.127,-7.645 30.878,-14.065 71.188,2.284 v 0 c 61.359,24.855 103.722,97.632 104.351,132.979 v 0 c -9.035,-27.734 -31.11,-58.381 -63.181,-82.706"
                 style="fill:#e0a80d;stroke:none;fill-opacity:1"
                 id="path142" /></g></g></g></g><g
         id="g144"
         transform="translate(-515.25001,362.25)"
         style="fill:#e0a80d;fill-opacity:1"><g
           id="g146"
           style="fill:#e0a80d;fill-opacity:1"><g
             id="g152"
             style="fill:#e0a80d;fill-opacity:1"><g
               id="g154"
               style="fill:#e0a80d;fill-opacity:1"><path
                 d="M 730.193,497.769 C 694.615,455.836 631.865,435.351 584.868,433.066 v 0 c -0.098,-0.033 -0.232,-0.033 -0.33,-0.033 v 0 c -10.722,-0.927 -22.108,-1.423 -34.188,-1.389 v 0 c -5.56,0.033 -8.87,-6.289 -5.56,-10.724 v 0 c 8.439,-11.451 30.382,-25.318 86.115,-6.155 v 0 c 78.139,26.874 124.772,92.801 125.433,135.196 v 0 c -4.137,-19.129 -12.874,-36.57 -26.145,-52.192"
                 style="fill:#e0a80d;stroke:none;fill-opacity:1"
                 id="path162" /></g></g></g></g><g
         id="g164"
         transform="translate(-515.25001,362.25)"
         style="fill:#e0a80d;fill-opacity:1"><g
           id="g166"
           style="fill:#e0a80d;fill-opacity:1"><g
             id="g172"
             style="fill:#e0a80d;fill-opacity:1"><g
               id="g174"
               style="fill:#e0a80d;fill-opacity:1"><path
                 d="m 529.995,473.443 c -7.904,1.754 -14.481,-6.411 -10.807,-13.627 v 0 c 4.524,-8.882 17.046,-18.38 49.319,-20.161 v 0 c 63.282,-3.491 202.285,38.187 181.991,161.042 v 0 c 0,0 -7.151,-174.566 -220.503,-127.254"
                 style="fill:#e0a80d;stroke:none;fill-opacity:1"
                 id="path182" /></g></g></g></g></g></g></svg>
