<?xml version="1.0" encoding="UTF-8" standalone="no"?>
<!-- Created with Inkscape (http://www.inkscape.org/) -->

<svg
   version="1.1"
   id="svg2"
   xml:space="preserve"
   width="354"
   height="471"
   viewBox="0 0 354 471"
   sodipodi:docname="logo_white.svg"
   inkscape:version="1.1.2 (b8e25be8, 2022-02-05)"
   xmlns:inkscape="http://www.inkscape.org/namespaces/inkscape"
   xmlns:sodipodi="http://sodipodi.sourceforge.net/DTD/sodipodi-0.dtd"
   xmlns="http://www.w3.org/2000/svg"
   xmlns:svg="http://www.w3.org/2000/svg"><defs
     id="defs6"><clipPath
       clipPathUnits="userSpaceOnUse"
       id="clipPath16"><path
         d="M 0,1080 H 1920 V 0 H 0 Z"
         id="path14" /></clipPath><linearGradient
       x1="0"
       y1="0"
       x2="1"
       y2="0"
       gradientUnits="userSpaceOnUse"
       gradientTransform="matrix(162.35158,-200.75734,-200.75734,-162.35158,660.89325,699.56885)"
       spreadMethod="pad"
       id="linearGradient80"><stop
         style="stop-opacity:1;stop-color:#ff753f"
         offset="0"
         id="stop76" /><stop
         style="stop-opacity:1;stop-color:#ff2ac4"
         offset="1"
         id="stop78" /></linearGradient><linearGradient
       x1="0"
       y1="0"
       x2="1"
       y2="0"
       gradientUnits="userSpaceOnUse"
       gradientTransform="matrix(162.35158,-200.75734,-200.75734,-162.35158,724.82227,751.26794)"
       spreadMethod="pad"
       id="linearGradient100"><stop
         style="stop-opacity:1;stop-color:#ff753f"
         offset="0"
         id="stop96" /><stop
         style="stop-opacity:1;stop-color:#ff2ac4"
         offset="1"
         id="stop98" /></linearGradient><linearGradient
       x1="0"
       y1="0"
       x2="1"
       y2="0"
       gradientUnits="userSpaceOnUse"
       gradientTransform="matrix(162.35158,-200.75734,-200.75734,-162.35158,544.99646,605.84363)"
       spreadMethod="pad"
       id="linearGradient120"><stop
         style="stop-opacity:1;stop-color:#ff753f"
         offset="0"
         id="stop116" /><stop
         style="stop-opacity:1;stop-color:#ff2ac4"
         offset="1"
         id="stop118" /></linearGradient><linearGradient
       x1="0"
       y1="0"
       x2="1"
       y2="0"
       gradientUnits="userSpaceOnUse"
       gradientTransform="matrix(162.35158,-200.75734,-200.75734,-162.35158,547.9895,608.26404)"
       spreadMethod="pad"
       id="linearGradient140"><stop
         style="stop-opacity:1;stop-color:#ff753f"
         offset="0"
         id="stop136" /><stop
         style="stop-opacity:1;stop-color:#ff2ac4"
         offset="1"
         id="stop138" /></linearGradient><linearGradient
       x1="0"
       y1="0"
       x2="1"
       y2="0"
       gradientUnits="userSpaceOnUse"
       gradientTransform="matrix(162.35158,-200.75734,-200.75734,-162.35158,549.94061,609.84192)"
       spreadMethod="pad"
       id="linearGradient160"><stop
         style="stop-opacity:1;stop-color:#ff753f"
         offset="0"
         id="stop156" /><stop
         style="stop-opacity:1;stop-color:#ff2ac4"
         offset="1"
         id="stop158" /></linearGradient><linearGradient
       x1="0"
       y1="0"
       x2="1"
       y2="0"
       gradientUnits="userSpaceOnUse"
       gradientTransform="matrix(162.35158,-200.75734,-200.75734,-162.35158,562.17084,619.73242)"
       spreadMethod="pad"
       id="linearGradient180"><stop
         style="stop-opacity:1;stop-color:#ff753f"
         offset="0"
         id="stop176" /><stop
         style="stop-opacity:1;stop-color:#ff2ac4"
         offset="1"
         id="stop178" /></linearGradient></defs><sodipodi:namedview
     id="namedview4"
     pagecolor="#ffffff"
     bordercolor="#666666"
     borderopacity="1.0"
     inkscape:pageshadow="2"
     inkscape:pageopacity="0.0"
     inkscape:pagecheckerboard="0"
     showgrid="false"
     inkscape:zoom="2"
     inkscape:cx="174.5"
     inkscape:cy="222.25"
     inkscape:window-width="1967"
     inkscape:window-height="1081"
     inkscape:window-x="1900"
     inkscape:window-y="25"
     inkscape:window-maximized="0"
     inkscape:current-layer="g8"
     width="500px" /><g
     id="g8"
     inkscape:groupmode="layer"
     inkscape:label="andypf"
     transform="matrix(1.3333333,0,0,-1.3333333,0,1440)"><g
       id="g64"
       transform="translate(-515.25001,362.25)"
       style="fill:#ffffff"><g
         id="g66"
         style="fill:#ffffff"><g
           id="g72"
           style="fill:#ffffff"><g
             id="g74"
             style="fill:#ffffff"><path
               d="m 698.553,661.693 c -45.739,-68.013 8.539,-138.142 12.742,-143.371 v 0 c 26.014,30.978 31.309,68.012 32.367,79.363 v 0 0.066 c 1.887,39.12 -14.396,67.55 -5.394,75.724 v 0 c 14.397,13.106 26.178,-16.151 26.178,-16.151 v 0 c 8.285,21.243 0.294,43.696 -17.51,43.693 v 0 c -12.21,-0.003 -29.036,-10.566 -48.383,-39.324"
               style="fill:#ffffff;stroke:none"
               id="path82" /></g></g></g></g><g
       id="g84"
       transform="translate(-515.25001,362.25)"
       style="fill:#ffffff"><g
         id="g86"
         style="fill:#ffffff"><g
           id="g92"
           style="fill:#ffffff"><g
             id="g94"
             style="fill:#ffffff"><path
               d="m 751.144,714.676 c -1.818,-0.18 -3.148,-1.8 -2.969,-3.619 v 0 c 0.18,-1.818 1.815,-3.163 3.619,-2.968 v 0 c 12.14,1.177 16.629,-9.151 17.978,-13.654 v 0 c 0.43,-1.434 1.746,-2.361 3.17,-2.361 v 0 c 0.314,0 0.634,0.045 0.951,0.14 v 0 c 1.751,0.525 2.746,2.371 2.22,4.12 v 0 c -3.468,11.569 -11.962,18.467 -22.497,18.466 v 0 c -0.811,0 -1.637,-0.041 -2.472,-0.124"
               style="fill:#ffffff;stroke:none"
               id="path102" /></g></g></g></g><g
       id="g104"
       transform="matrix(0.87022922,0,0,1.0933789,-411.9751,333.06264)"
       style="fill:#ffffff"><g
         id="g106"
         style="fill:#ffffff"><g
           id="g112"
           style="fill:#ffffff"><g
             id="g114"
             style="fill:#ffffff"><path
               d="m 656.521,385.31 c -6.752,-2.748 -13.238,-4.966 -19.427,-6.653 v 0 c -0.298,-0.099 -0.596,-0.231 -0.894,-0.364 v 0 c -4.501,-1.92 -4.832,-8.241 -0.496,-10.524 v 0 c 16.184,-8.705 46.434,7.512 46.434,7.512 v 0 c 50.801,28.032 65.066,74.598 68.971,102.365 v 0 C 733.337,442.102 699.546,402.718 656.521,385.31"
               style="fill:#ffffff;stroke:none"
               id="path122" /></g></g></g></g><g
       id="g124"
       transform="translate(-515.25001,362.25)"
       style="fill:#ffffff"><g
         id="g126"
         style="fill:#ffffff"><g
           id="g132"
           style="fill:#ffffff"><g
             id="g134"
             style="fill:#ffffff"><path
               d="m 695.209,441.705 c -0.958,-0.762 -1.952,-1.522 -2.944,-2.218 v 0 c -1.788,-1.357 -3.674,-2.68 -5.561,-3.972 v 0 c -1.357,-0.926 -2.746,-1.853 -4.17,-2.78 v 0 c -0.066,-0.033 -0.132,-0.099 -0.198,-0.131 v 0 c -14.761,-9.631 -31.243,-17.906 -49.28,-24.094 v 0 c -19.029,-6.554 -35.875,-9.863 -50.074,-9.863 v 0 h -0.86 c -2.416,-2.548 -2.581,-6.983 0.729,-9.499 v 0 c 10.127,-7.645 30.878,-14.065 71.188,2.284 v 0 c 61.359,24.855 103.722,97.632 104.351,132.979 v 0 c -9.035,-27.734 -31.11,-58.381 -63.181,-82.706"
               style="fill:#ffffff;stroke:none"
               id="path142" /></g></g></g></g><g
       id="g144"
       transform="translate(-515.25001,362.25)"
       style="fill:#ffffff"><g
         id="g146"
         style="fill:#ffffff"><g
           id="g152"
           style="fill:#ffffff"><g
             id="g154"
             style="fill:#ffffff"><path
               d="M 730.193,497.769 C 694.615,455.836 631.865,435.351 584.868,433.066 v 0 c -0.098,-0.033 -0.232,-0.033 -0.33,-0.033 v 0 c -10.722,-0.927 -22.108,-1.423 -34.188,-1.389 v 0 c -5.56,0.033 -8.87,-6.289 -5.56,-10.724 v 0 c 8.439,-11.451 30.382,-25.318 86.115,-6.155 v 0 c 78.139,26.874 124.772,92.801 125.433,135.196 v 0 c -4.137,-19.129 -12.874,-36.57 -26.145,-52.192"
               style="fill:#ffffff;stroke:none"
               id="path162" /></g></g></g></g><g
       id="g164"
       transform="translate(-515.25001,362.25)"
       style="fill:#ffffff"><g
         id="g166"
         style="fill:#ffffff"><g
           id="g172"
           style="fill:#ffffff"><g
             id="g174"
             style="fill:#ffffff"><path
               d="m 529.995,473.443 c -7.904,1.754 -14.481,-6.411 -10.807,-13.627 v 0 c 4.524,-8.882 17.046,-18.38 49.319,-20.161 v 0 c 63.282,-3.491 202.285,38.187 181.991,161.042 v 0 c 0,0 -7.151,-174.566 -220.503,-127.254"
               style="fill:#ffffff;stroke:none"
               id="path182" /></g></g></g></g></g></svg>
