<?xml version="1.0" encoding="UTF-8" standalone="no"?>
<!-- Created with Inkscape (http://www.inkscape.org/) -->

<svg
   version="1.1"
   id="svg1022"
   xml:space="preserve"
   width="1178.2872"
   height="466.13177"
   viewBox="0 0 1178.2872 466.13177"
   sodipodi:docname="logo-x.svg"
   inkscape:version="1.1.2 (b8e25be8, 2022-02-05)"
   xmlns:inkscape="http://www.inkscape.org/namespaces/inkscape"
   xmlns:sodipodi="http://sodipodi.sourceforge.net/DTD/sodipodi-0.dtd"
   xmlns="http://www.w3.org/2000/svg"
   xmlns:svg="http://www.w3.org/2000/svg"><defs
     id="defs1026"><clipPath
       clipPathUnits="userSpaceOnUse"
       id="clipPath1036"><path
         d="M 0,1080 H 1920 V 0 H 0 Z"
         id="path1034" /></clipPath></defs><sodipodi:namedview
     id="namedview1024"
     pagecolor="#ffffff"
     bordercolor="#666666"
     borderopacity="1.0"
     inkscape:pageshadow="2"
     inkscape:pageopacity="0.0"
     inkscape:pagecheckerboard="0"
     showgrid="false"
     inkscape:zoom="0.428125"
     inkscape:cx="860.72993"
     inkscape:cy="270.94891"
     inkscape:window-width="1936"
     inkscape:window-height="1256"
     inkscape:window-x="1613"
     inkscape:window-y="25"
     inkscape:window-maximized="0"
     inkscape:current-layer="g1028" /><g
     id="g1028"
     inkscape:groupmode="layer"
     inkscape:label="andypf"
     transform="matrix(1.3333333,0,0,-1.3333333,-146.62229,960.07362)"><g
       id="g1030"
       style="fill:#f9f9f9"
       transform="translate(-408.17519,5.2554746)"><g
         id="g1032"
         clip-path="url(#clipPath1036)"
         style="fill:#f9f9f9"><g
           id="g1038"
           transform="translate(898.4053,418.7393)"
           style="fill:#f9f9f9"><path
             d="m 0,0 c 0,-2.383 -0.542,-4.541 -1.626,-6.476 -1.085,-1.936 -2.575,-3.573 -4.467,-4.913 -1.893,-1.34 -4.137,-2.371 -6.731,-3.094 -2.595,-0.723 -5.402,-1.085 -8.422,-1.085 -1.83,0 -3.648,0.225 -5.455,0.676 -1.809,0.451 -3.563,1.093 -5.264,1.931 -1.702,0.837 -3.308,1.866 -4.817,3.089 -1.51,1.222 -2.862,2.599 -4.052,4.13 l 4.977,4.658 c 0.638,-0.766 1.403,-1.586 2.296,-2.457 0.894,-0.872 1.947,-1.681 3.159,-2.424 1.212,-0.745 2.573,-1.362 4.083,-1.85 1.51,-0.491 3.2,-0.735 5.073,-0.735 1.744,0 3.466,0.17 5.168,0.509 1.701,0.339 3.211,0.857 4.53,1.556 1.318,0.699 2.381,1.589 3.19,2.669 0.808,1.081 1.212,2.362 1.212,3.845 0,1.822 -0.415,3.219 -1.244,4.195 -0.829,0.973 -1.904,1.683 -3.222,2.128 -1.319,0.444 -2.829,0.71 -4.53,0.794 -1.702,0.084 -3.403,0.127 -5.104,0.127 -5.742,0 -10.103,1.022 -13.08,3.063 -2.978,2.042 -4.466,5.125 -4.466,9.252 0,1.914 0.436,3.774 1.308,5.583 0.871,1.808 2.083,3.402 3.637,4.785 1.552,1.382 3.402,2.488 5.55,3.317 2.148,0.831 4.499,1.245 7.051,1.245 3.615,0 6.996,-0.553 10.144,-1.659 3.148,-1.107 6.147,-3.063 8.997,-5.87 l -4.338,-5.104 c -1.277,1.021 -2.479,1.892 -3.606,2.616 -1.127,0.723 -2.264,1.308 -3.413,1.754 -1.149,0.447 -2.351,0.766 -3.605,0.958 -1.255,0.19 -2.648,0.286 -4.179,0.286 -1.362,0 -2.638,-0.213 -3.829,-0.638 -1.191,-0.425 -2.233,-1 -3.126,-1.722 -0.893,-0.724 -1.594,-1.563 -2.105,-2.521 -0.511,-0.957 -0.766,-1.945 -0.766,-2.967 0,-0.723 0.149,-1.414 0.447,-2.073 0.297,-0.66 0.83,-1.244 1.595,-1.755 0.765,-0.51 1.796,-0.915 3.094,-1.212 1.297,-0.298 2.967,-0.446 5.009,-0.446 4.168,0 7.603,-0.319 10.304,-0.958 2.701,-0.638 4.838,-1.562 6.412,-2.775 C -2.638,9.22 -1.542,7.73 -0.924,5.966 -0.309,4.2 0,2.211 0,0"
             style="fill:#f9f9f9;fill-opacity:1;fill-rule:nonzero;stroke:none"
             id="path1040" /></g><g
           id="g1042"
           transform="translate(968.9082,428.4053)"
           style="fill:#f9f9f9"><path
             d="m 0,0 c 0,2.591 -0.5,4.979 -1.5,7.165 -0.999,2.187 -2.36,4.076 -4.083,5.669 -1.722,1.592 -3.711,2.823 -5.965,3.693 -2.256,0.87 -4.658,1.306 -7.21,1.306 -2.638,0 -5.105,-0.446 -7.402,-1.338 -2.297,-0.891 -4.285,-2.153 -5.965,-3.789 -1.681,-1.635 -2.999,-3.566 -3.956,-5.796 -0.957,-2.229 -1.436,-4.681 -1.436,-7.356 0,-2.548 0.511,-4.915 1.532,-7.102 1.021,-2.186 2.402,-4.065 4.147,-5.637 1.744,-1.57 3.742,-2.802 5.998,-3.694 2.254,-0.891 4.635,-1.337 7.146,-1.337 2.552,0 4.965,0.467 7.241,1.402 2.275,0.933 4.253,2.217 5.934,3.852 1.68,1.636 3.02,3.557 4.019,5.765 C -0.5,-4.989 0,-2.59 0,0 m 6.955,-0.414 c 0,-3.531 -0.693,-6.807 -2.077,-9.826 -1.384,-3.021 -3.247,-5.637 -5.59,-7.848 -2.343,-2.212 -5.068,-3.956 -8.177,-5.231 -3.109,-1.277 -6.388,-1.915 -9.838,-1.915 -3.62,0 -6.984,0.66 -10.093,1.978 -3.109,1.319 -5.813,3.126 -8.113,5.423 -2.3,2.298 -4.11,5.009 -5.43,8.136 -1.321,3.126 -1.98,6.475 -1.98,10.049 0,3.487 0.692,6.73 2.075,9.729 1.384,2.999 3.258,5.593 5.622,7.784 2.363,2.191 5.1,3.903 8.209,5.136 3.109,1.234 6.367,1.851 9.774,1.851 3.536,0 6.857,-0.649 9.966,-1.947 3.108,-1.298 5.824,-3.084 8.145,-5.358 C 1.769,15.271 3.6,12.602 4.942,9.539 6.284,6.477 6.955,3.159 6.955,-0.414"
             style="fill:#f9f9f9;fill-opacity:1;fill-rule:nonzero;stroke:none"
             id="path1044" /></g><g
           id="g1046"
           transform="translate(1012.7402,404.2559)"
           style="fill:#f9f9f9"><path
             d="M 0,0 H -6.955 V 47.598 H 26.542 V 40.579 H 0 V 26.113 c 1.446,0.842 2.913,1.359 4.402,1.548 1.489,0.19 3.02,0.285 4.595,0.285 H 19.396 V 20.928 H 8.997 C 7.465,20.928 5.943,20.81 4.435,20.577 2.924,20.343 1.446,19.843 0,19.077 Z"
             style="fill:#f9f9f9;fill-opacity:1;fill-rule:nonzero;stroke:none"
             id="path1048" /></g><g
           id="g1050"
           transform="translate(1087.9004,444.835)"
           style="fill:#f9f9f9"><path
             d="M 0,0 V -40.579 H -6.763 V 0 H -23.735 V 7.019 H 16.781 V 0 Z"
             style="fill:#f9f9f9;fill-opacity:1;fill-rule:nonzero;stroke:none"
             id="path1052" /></g><g
           id="g1054"
           transform="translate(1193.1118,451.8535)"
           style="fill:#f9f9f9"><path
             d="m 0,0 -15.186,-47.598 h -7.528 l -9.188,28.138 -8.932,-28.138 h -7.529 L -64.505,0 h 7.145 l 12.633,-35.603 8.933,28.074 L -38.219,0 h 7.147 L -19.078,-35.603 -7.337,0 Z"
             style="fill:#f9f9f9;fill-opacity:1;fill-rule:nonzero;stroke:none"
             id="path1056" /></g><g
           id="g1058"
           transform="translate(1250.2793,418.2295)"
           style="fill:#f9f9f9"><path
             d="M 0,0 -10.4,20.098 -20.928,-2.681 c 0.851,0.724 2.255,1.35 4.212,1.883 1.955,0.531 4.593,0.798 7.911,0.798 z m -16.525,34.453 h 7.656 L 14.037,-13.974 H 6.252 l -3.126,6.955 h -14.483 c -2.169,0 -4.094,-0.15 -5.774,-0.447 -1.681,-0.298 -3.117,-0.68 -4.307,-1.148 -1.191,-0.469 -2.148,-0.979 -2.871,-1.531 -0.724,-0.553 -1.213,-1.084 -1.467,-1.595 l -1.213,-2.234 h -7.529 l 20.609,42.557 z"
             style="fill:#f9f9f9;fill-opacity:1;fill-rule:nonzero;stroke:none"
             id="path1060" /></g><g
           id="g1062"
           transform="translate(1299.3438,429.1221)"
           style="fill:#f9f9f9"><path
             d="m 0,0 c 1.446,0.859 2.913,1.384 4.402,1.578 1.489,0.193 3.02,0.29 4.595,0.29 h 9.06 c 2.424,0 4.38,0.568 5.87,1.706 1.488,1.138 2.233,2.972 2.233,5.5 0,1.223 -0.214,2.255 -0.639,3.098 -0.425,0.844 -1,1.528 -1.722,2.055 -0.724,0.526 -1.574,0.906 -2.552,1.138 -0.979,0.232 -2.042,0.348 -3.19,0.348 L 0,15.713 Z M 14.575,-5.15 H 9.013 C 7.479,-5.15 5.956,-5.269 4.442,-5.502 2.929,-5.736 1.449,-6.235 0,-7.001 v -17.865 h -6.955 v 47.597 h 25.051 c 2.173,0 4.175,-0.309 6.007,-0.924 1.832,-0.618 3.419,-1.522 4.761,-2.712 1.342,-1.192 2.386,-2.659 3.132,-4.403 0.745,-1.745 1.118,-3.744 1.118,-5.998 0,-3.616 -0.977,-6.571 -2.929,-8.868 -1.952,-2.297 -4.656,-3.871 -8.109,-4.722 l 3.7,-7.592 c 0.772,-1.107 1.437,-2 1.996,-2.68 0.558,-0.681 1.094,-1.223 1.61,-1.627 0.514,-0.404 1.051,-0.681 1.609,-0.829 0.558,-0.149 1.223,-0.224 1.995,-0.224 l 2.234,0.064 v -7.082 c -1.362,0 -2.735,0.042 -4.119,0.128 -1.387,0.085 -2.718,0.361 -3.997,0.829 -1.277,0.468 -2.493,1.213 -3.643,2.233 -1.15,1.021 -2.174,2.466 -3.068,4.339 z"
             style="fill:#f9f9f9;fill-opacity:1;fill-rule:nonzero;stroke:none"
             id="path1064" /></g><g
           id="g1066"
           transform="translate(1372.0796,411.2744)"
           style="fill:#f9f9f9"><path
             d="M 0,0 H 29.35 V -7.019 H -6.955 V 40.579 H 26.542 V 33.561 H 0 V 19.095 c 1.446,0.842 2.913,1.358 4.402,1.548 1.489,0.189 3.02,0.285 4.595,0.285 H 19.396 V 13.909 H 8.997 C 7.465,13.909 5.943,13.792 4.435,13.56 2.924,13.326 1.446,12.828 0,12.066 Z"
             style="fill:#f9f9f9;fill-opacity:1;fill-rule:nonzero;stroke:none"
             id="path1068" /></g><g
           id="g1070"
           transform="translate(905.2661,632.96)"
           style="fill:#f9f9f9"><path
             d="m 0,0 h -46.97 v -23.584 h 32.731 c 12.772,0 37.822,1.599 37.822,-17.535 0,-18.607 -24.49,-17.734 -37.246,-17.734 H -46.97 v -82.237 h 23.584 v 58.852 H 0 c 0,0 46.953,0 46.953,41.119 C 46.953,0 0,0 0,0"
             style="fill:#f9f9f9;fill-opacity:1;fill-rule:nonzero;stroke:none"
             id="path1072" /></g><path
           d="m 1006.028,609.376 h 94.121 v 23.584 h -94.121 z m 0,-35.269 V 491.87 h 23.584 v 58.852 h 58.654 v 23.385 z"
           style="fill:#f9f9f9;fill-opacity:1;fill-rule:nonzero;stroke:none"
           id="path1074" /><g
           id="g1076"
           transform="translate(1193.4614,636.981)"
           style="fill:#f9f9f9"><path
             d="m 0,0 -56.232,-145.111 h 25.397 L 0,-59.462 31.033,-145.111 h 25.396 z"
             style="fill:#f9f9f9;fill-opacity:1;fill-rule:nonzero;stroke:none"
             id="path1078" /></g><g
           id="g1080"
           transform="translate(1378.2744,632.96)"
           style="fill:#f9f9f9"><path
             d="m 0,0 v -95.95 c 0,-15.723 -14.717,-23.584 -29.418,-23.584 -14.915,0 -28.017,7.268 -29.237,23.584 V 0 h -23.583 v -95.95 c 0,-29.023 23.798,-47.167 52.82,-47.167 30.027,0 53.001,17.139 53.001,47.167 V 0 Z"
             style="fill:#f9f9f9;fill-opacity:1;fill-rule:nonzero;stroke:none"
             id="path1082" /></g><g
           id="g1084"
           transform="translate(764.4468,657.3242)"
           style="fill:#f9f9f9"><path
             d="m 0,0 c 0,0 -11.782,29.257 -26.179,16.151 -9.002,-8.175 7.282,-36.604 5.395,-75.724 v -0.066 c -1.059,-11.352 -6.355,-48.386 -32.368,-79.364 -4.203,5.23 -58.48,75.359 -12.742,143.372 C -18.335,75.062 13.966,35.81 0,0"
             style="fill:#f9f9f9;fill-opacity:1;fill-rule:nonzero;stroke:none"
             id="path1086" /></g><g
           id="g1088"
           transform="translate(772.9409,692.0737)"
           style="fill:#f9f9f9"><path
             d="m 0,0 c -1.424,0 -2.739,0.927 -3.169,2.361 -1.35,4.504 -5.837,14.831 -17.978,13.654 -1.804,-0.194 -3.439,1.15 -3.618,2.968 -0.18,1.82 1.15,3.439 2.968,3.619 C -10.131,23.762 -0.564,16.721 3.172,4.261 3.697,2.511 2.704,0.666 0.952,0.141 0.635,0.045 0.315,0 0,0"
             style="fill:#f9f9f9;fill-opacity:1;fill-rule:nonzero;stroke:none"
             id="path1090" /></g><g
           id="g1092"
           transform="translate(751.1089,477.6465)"
           style="fill:#f9f9f9"><path
             d="m 0,0 c -3.905,-27.768 -18.169,-74.333 -68.971,-102.365 0,0 -30.25,-16.217 -46.434,-7.513 -4.336,2.283 -4.004,8.605 0.496,10.524 0.299,0.133 0.596,0.265 0.894,0.365 6.189,1.687 12.676,3.905 19.428,6.652 C -51.563,-74.929 -17.772,-35.545 0,0"
             style="fill:#f9f9f9;fill-opacity:1;fill-rule:nonzero;stroke:none"
             id="path1094" /></g><g
           id="g1096"
           transform="translate(758.3901,524.4111)"
           style="fill:#f9f9f9"><path
             d="m 0,0 c -0.629,-35.347 -42.991,-108.124 -104.351,-132.979 -40.311,-16.349 -61.062,-9.929 -71.189,-2.284 -3.31,2.516 -3.145,6.951 -0.729,9.498 h 0.861 c 14.199,0 31.044,3.31 50.074,9.864 18.037,6.188 34.519,14.463 49.28,24.093 0.066,0.034 0.132,0.099 0.199,0.132 1.423,0.927 2.813,1.854 4.169,2.78 1.887,1.292 3.774,2.615 5.561,3.972 0.992,0.695 1.985,1.456 2.945,2.218 C -31.11,-58.381 -9.035,-27.734 0,0"
             style="fill:#f9f9f9;fill-opacity:1;fill-rule:nonzero;stroke:none"
             id="path1098" /></g><g
           id="g1100"
           transform="translate(756.3384,549.9609)"
           style="fill:#f9f9f9"><path
             d="m 0,0 c -0.662,-42.396 -47.294,-108.322 -125.433,-135.196 -55.734,-19.162 -77.676,-5.296 -86.115,6.155 -3.31,4.436 0,10.757 5.559,10.724 12.08,-0.034 23.466,0.463 34.189,1.389 0.099,0 0.231,0 0.33,0.033 46.996,2.285 109.746,22.771 145.324,64.704 C -12.875,-36.57 -4.137,-19.129 0,0"
             style="fill:#f9f9f9;fill-opacity:1;fill-rule:nonzero;stroke:none"
             id="path1102" /></g><g
           id="g1104"
           transform="translate(750.498,600.6973)"
           style="fill:#f9f9f9"><path
             d="m 0,0 c 0,0 -7.151,-174.566 -220.502,-127.254 -7.905,1.754 -14.482,-6.412 -10.808,-13.627 4.524,-8.882 17.046,-18.381 49.319,-20.161 C -118.709,-164.533 20.294,-122.854 0,0"
             style="fill:#f9f9f9;fill-opacity:1;fill-rule:nonzero;stroke:none"
             id="path1106" /></g></g></g></g></svg>
